<svg width="14" height="13" viewBox="0 0 14 13" fill="none" xmlns="http://www.w3.org/2000/svg">
<path d="M0.65625 0C0.292578 0 0 0.292578 0 0.65625V11.5938C0 11.9574 0.292578 12.25 0.65625 12.25H1.09375C1.45742 12.25 1.75 11.9574 1.75 11.5938V0.65625C1.75 0.292578 1.45742 0 1.09375 0H0.65625ZM3.0625 0C2.82187 0 2.625 0.196875 2.625 0.4375V11.8125C2.625 12.0531 2.82187 12.25 3.0625 12.25C3.30313 12.25 3.5 12.0531 3.5 11.8125V0.4375C3.5 0.196875 3.30313 0 3.0625 0ZM5.03125 0C4.66758 0 4.375 0.292578 4.375 0.65625V11.5938C4.375 11.9574 4.66758 12.25 5.03125 12.25H5.46875C5.83242 12.25 6.125 11.9574 6.125 11.5938V0.65625C6.125 0.292578 5.83242 0 5.46875 0H5.03125ZM7.65625 0C7.29258 0 7 0.292578 7 0.65625V11.5938C7 11.9574 7.29258 12.25 7.65625 12.25H8.09375C8.45742 12.25 8.75 11.9574 8.75 11.5938V0.65625C8.75 0.292578 8.45742 0 8.09375 0H7.65625ZM12.25 0.65625V11.5938C12.25 11.9574 12.5426 12.25 12.9062 12.25H13.3438C13.7074 12.25 14 11.9574 14 11.5938V0.65625C14 0.292578 13.7074 0 13.3438 0H12.9062C12.5426 0 12.25 0.292578 12.25 0.65625ZM10.5 0.4375V11.8125C10.5 12.0531 10.6969 12.25 10.9375 12.25C11.1781 12.25 11.375 12.0531 11.375 11.8125V0.4375C11.375 0.196875 11.1781 0 10.9375 0C10.6969 0 10.5 0.196875 10.5 0.4375Z" fill="#34AD61"/>
</svg>
