<svg width="8" height="14" viewBox="0 0 8 14" fill="none" xmlns="http://www.w3.org/2000/svg">
<path d="M3.98026 0C4.46425 0 4.85526 0.391016 4.85526 0.875V1.85117C4.89901 1.85664 4.94003 1.86211 4.98378 1.87031C4.99472 1.87305 5.00292 1.87305 5.01386 1.87578L6.32636 2.11641C6.80214 2.20391 7.11659 2.66055 7.02909 3.13359C6.94159 3.60664 6.48495 3.92383 6.0119 3.83633L4.71308 3.59844C3.85722 3.47266 3.10253 3.55742 2.57206 3.76797C2.04159 3.97852 1.82831 4.26836 1.77909 4.53633C1.7244 4.82891 1.76542 4.99297 1.8119 5.09414C1.86112 5.20078 1.9623 5.32109 2.1619 5.45508C2.60761 5.74766 3.2912 5.93906 4.17714 6.17422L4.25644 6.19609C5.03847 6.40391 5.9955 6.65547 6.70644 7.12031C7.09472 7.37461 7.46112 7.71914 7.68808 8.20039C7.9205 8.68984 7.96972 9.23672 7.86308 9.81914C7.6744 10.8582 6.958 11.5527 6.06933 11.9164C5.69472 12.0695 5.2873 12.168 4.85526 12.2172V13.125C4.85526 13.609 4.46425 14 3.98026 14C3.49628 14 3.10526 13.609 3.10526 13.125V12.1707C3.09433 12.168 3.08065 12.168 3.06972 12.1652H3.06425C2.39706 12.0613 1.30058 11.7742 0.562295 11.4461C0.122061 11.2492 -0.0775484 10.7324 0.119327 10.2922C0.316202 9.85195 0.832999 9.65234 1.27323 9.84922C1.84472 10.1035 2.78534 10.3551 3.32948 10.4398C4.20175 10.5684 4.92089 10.4945 5.40761 10.2949C5.86972 10.1062 6.08026 9.83281 6.14042 9.50469C6.19237 9.21484 6.15136 9.04805 6.10487 8.94688C6.05292 8.8375 5.95175 8.71719 5.7494 8.5832C5.30097 8.29062 4.61464 8.09922 3.72597 7.86406L3.6494 7.84492C2.87011 7.63711 1.91308 7.38281 1.20214 6.91797C0.813858 6.66367 0.450186 6.31641 0.223233 5.83516C-0.00645461 5.3457 -0.052939 4.79883 0.056436 4.21641C0.253311 3.17187 1.03534 2.49375 1.92401 2.14102C2.28769 1.99609 2.6869 1.89766 3.10526 1.84023V0.875C3.10526 0.391016 3.49628 0 3.98026 0Z" fill="#34AD61"/>
</svg>
