<svg width="273" height="44" viewBox="0 0 273 44" fill="none" xmlns="http://www.w3.org/2000/svg">
<path d="M10.1848 35.2744C9.72307 33.5099 9.2723 31.7679 8.81054 30.0258C8.29381 28.1265 8.45873 26.3507 9.67909 24.766C10.7126 23.4286 11.757 22.0911 12.8125 20.7762C12.9884 20.5626 13.0104 20.3716 12.9444 20.1018C12.0429 16.7077 11.1523 13.3135 10.2728 9.91934C10.0969 9.245 9.75605 8.72801 9.14037 8.41331C8.50271 9.07641 8.46972 9.09889 7.66714 8.59314C5.27039 7.08712 2.87365 5.58109 0.487891 4.07507C-0.0508273 3.7379 -0.127787 3.41198 0.180052 2.8725C0.619822 2.08578 1.05959 1.29905 1.51036 0.523561C1.85118 -0.0721036 2.15902 -0.139538 2.74171 0.220109C5.16045 1.71489 7.56819 3.22091 9.98693 4.71569C10.7235 5.17649 10.7785 5.35632 10.4157 6.19924C10.5476 6.28915 10.6906 6.3903 10.8335 6.46897C11.757 6.96349 12.2957 7.75022 12.5596 8.76172C13.8129 13.5158 15.0663 18.2811 16.3196 23.0352C17.3531 26.9801 18.3865 30.925 19.431 34.8586C19.453 34.9597 19.497 35.0497 19.5519 35.207C20.0797 35.0721 20.5964 34.9373 21.1131 34.8024C27.8856 32.948 31.5137 32.0151 38.2861 30.1495C38.616 30.0596 38.9568 29.9921 39.2756 29.8685C39.5945 29.7449 39.7594 29.8235 39.8034 30.1719C39.8253 30.3181 40.1332 32.2062 40.1772 32.3973C39.6055 32.5883 38.8029 31.0149 38.2532 31.2059C29.9855 33.9258 24.8732 35.7352 16.6055 38.4438C16.3306 38.5337 16.1987 38.6236 16.2097 38.9721C16.2756 40.9838 14.8574 42.7371 12.8784 43.1642C11.0204 43.5575 9.06341 42.4898 8.30481 40.6579C7.5572 38.8259 8.17288 36.6905 9.76705 35.5779C9.90997 35.4767 10.0419 35.3868 10.2068 35.2744H10.1848ZM11.8889 26.081C11.1743 27.0138 10.9544 28.104 11.2073 29.2279C11.6141 31.0261 12.1198 32.8131 12.6036 34.5889C12.6365 34.7237 12.7905 34.8811 12.9224 34.9148C13.78 35.1283 14.5056 35.5554 15.1212 36.2073C15.1982 36.2859 15.3741 36.3421 15.4841 36.3197M13.5711 39.062C13.5711 38.1966 12.9444 37.5222 12.1198 37.4998C11.2843 37.4885 10.5806 38.1853 10.5806 39.0395C10.5806 39.8824 11.2403 40.5567 12.0758 40.568C12.9114 40.568 13.5711 39.9161 13.5711 39.062Z" fill="white"/>
<path d="M38.2186 27.4395C38.2186 28.3273 37.7789 28.9005 37.0313 29.1028C35.4371 29.5411 33.832 29.9794 32.2379 30.4177C28.9507 31.3168 25.6635 32.2159 22.3763 33.115C21.2219 33.4297 20.5183 33.0139 20.2104 31.8226C19.144 27.7429 18.0776 23.6632 17.0112 19.5948C16.9232 19.2464 16.8133 18.8868 16.7253 18.5384C16.5165 17.673 16.9562 16.8751 17.8028 16.6391C20.969 15.7624 24.1463 14.8858 27.3126 14.0204C29.1156 13.5259 30.9186 13.0314 32.7216 12.5482C33.6341 12.3009 34.3707 12.7505 34.6126 13.672C35.0743 15.4028 35.5141 17.1223 35.9759 18.8531C36.6245 21.3144 37.2731 23.7869 37.9218 26.2481C38.0427 26.6977 38.1417 27.1472 38.2076 27.4282L38.2186 27.4395Z" fill="white"/>
<path d="M27.951 11.627C27.951 12.234 27.6541 12.6161 27.1483 12.7622C26.0598 13.0657 24.9713 13.3579 23.8829 13.6614C21.6399 14.2796 19.4079 14.8865 17.165 15.5047C16.3734 15.7183 15.9006 15.4373 15.6917 14.628C14.966 11.8518 14.2403 9.07565 13.5037 6.28823C13.4377 6.0522 13.3718 5.80493 13.3168 5.5689C13.1738 4.98444 13.4707 4.4337 14.0534 4.27635C16.2084 3.68065 18.3744 3.08495 20.5294 2.48925C21.7608 2.15206 22.9923 1.81488 24.2237 1.48893C24.8504 1.32034 25.3452 1.6238 25.5101 2.25322C25.8289 3.43338 26.1258 4.6023 26.4337 5.78245C26.8735 7.46839 27.3242 9.14309 27.764 10.829C27.841 11.1325 27.907 11.436 27.9619 11.6383L27.951 11.627Z" fill="white"/>
<path d="M72.5417 15.166H62.1192L61.5914 18.3466H70.9915L69.6832 25.8655H60.2831L59.7114 29.1248H70.3429L69.0346 36.8122H50.2344L55.2588 7.55719H73.861L72.5527 15.166H72.5417Z" fill="white"/>
<path d="M88.5038 15.3324C90.6696 15.3324 92.3187 16.1416 93.4401 17.7712C94.5615 19.4008 94.8693 21.716 94.3526 24.7167L92.2638 36.7983H84.7548L86.6568 25.5484C86.9866 23.6828 86.305 22.75 84.6009 22.75C82.8969 22.75 81.7535 23.7502 81.3137 25.7507L79.3898 36.7983H71.8809L75.5309 15.9056H83.0398L82.688 17.9285C84.2601 16.1865 86.1951 15.3212 88.5038 15.3212V15.3324Z" fill="white"/>
<path d="M111.736 15.9171H120.036L108.877 36.8099H100.687L97.1465 15.9171H104.765L106.392 26.7175L111.747 15.9171H111.736Z" fill="white"/>
<path d="M118.078 36.8111L121.728 15.9179H129.237L125.587 36.8111H118.078ZM128.984 13.0857C128.061 13.9173 127.005 14.3444 125.84 14.3444C124.675 14.3444 123.729 13.9173 123.037 13.0744C122.344 12.2203 122.091 11.2312 122.278 10.0849C122.443 8.9722 122.982 7.98317 123.916 7.11777C124.84 6.25237 125.917 5.82529 127.148 5.82529C128.38 5.82529 129.248 6.25237 129.93 7.09529C130.612 7.94945 130.853 8.93848 130.667 10.0849C130.48 11.2537 129.919 12.254 128.984 13.0969V13.0857Z" fill="white"/>
<path d="M147.563 34.3052C145.365 36.3619 142.594 37.3958 139.241 37.3958C135.888 37.3958 133.348 36.227 131.622 33.8894C129.896 31.5517 129.28 28.8769 129.808 25.8649C130.303 22.9653 131.644 20.4928 133.854 18.4249C136.064 16.3682 138.856 15.3343 142.231 15.3343C145.606 15.3343 148.014 16.5143 149.773 18.8632C151.532 21.2233 152.148 23.8869 151.631 26.8652C151.114 29.7648 149.762 32.2373 147.563 34.3052ZM137.636 29.023C138.164 29.7086 138.933 30.0457 139.945 30.0457C140.956 30.0457 141.836 29.7086 142.583 29.023C143.331 28.3374 143.803 27.4608 143.99 26.3707C144.177 25.2805 144.012 24.4039 143.496 23.7183C142.979 23.0328 142.209 22.6956 141.209 22.6956C140.208 22.6956 139.318 23.0328 138.548 23.7183C137.79 24.4039 137.306 25.2805 137.119 26.3707C136.932 27.4608 137.097 28.3374 137.625 29.023H137.636Z" fill="white"/>
<path d="M160.626 37.4055C158.23 37.4055 156.251 37.0121 154.701 36.2367C153.151 35.4612 151.985 34.135 151.227 32.2694L157.647 29.1338C158.252 30.7184 159.307 31.5164 160.835 31.5164C161.814 31.5164 162.363 31.2242 162.473 30.6398C162.55 30.2464 162.265 29.9205 161.616 29.6395C160.967 29.3586 160.154 29.0776 159.208 28.7854C158.252 28.4932 157.317 28.1223 156.405 27.6615C155.492 27.2007 154.767 26.459 154.239 25.4475C153.711 24.436 153.568 23.1885 153.81 21.705C154.052 20.2552 154.679 19.0302 155.668 18.0299C156.658 17.0297 157.768 16.3329 158.977 15.9395C160.187 15.5462 161.473 15.3551 162.836 15.3551C164.793 15.3551 166.519 15.7597 167.981 16.5689C169.455 17.3781 170.532 18.5919 171.214 20.199L165.167 23.0874C164.672 21.8062 163.87 21.1206 162.759 21.0419C161.946 20.9857 161.462 21.2892 161.33 21.9635C161.253 22.3793 161.429 22.7277 161.88 23.0087C162.331 23.2897 162.924 23.5032 163.661 23.6605C164.397 23.8179 165.189 24.0539 166.035 24.3911C166.882 24.7282 167.641 25.1216 168.322 25.5824C169.004 26.0431 169.51 26.7624 169.85 27.729C170.191 28.7067 170.235 29.8755 169.993 31.2354C169.609 33.4045 168.542 34.9779 166.783 35.9557C165.024 36.9335 162.979 37.4167 160.626 37.4167V37.4055Z" fill="white"/>
<path d="M185.175 16.4707C186.165 16.4707 187.011 16.8416 187.704 17.5723C188.397 18.3142 188.749 19.2134 188.749 20.2701C188.749 21.3267 188.397 22.2372 187.704 22.9678C187 23.7097 186.165 24.0694 185.175 24.0694C184.009 24.0694 183.108 23.5973 182.503 22.6418V26.7784H181.271V16.6506H182.503V17.8983C183.119 16.9428 184.009 16.4707 185.175 16.4707ZM185.01 22.8667C185.714 22.8667 186.308 22.6194 186.791 22.1248C187.275 21.6302 187.517 21.0119 187.517 20.2813C187.517 19.5507 187.275 18.9324 186.791 18.4378C186.308 17.9432 185.714 17.6959 185.01 17.6959C184.306 17.6959 183.691 17.9432 183.207 18.4378C182.723 18.9324 182.481 19.5507 182.481 20.2813C182.481 21.0119 182.723 21.6302 183.207 22.1248C183.691 22.6194 184.284 22.8667 185.01 22.8667Z" fill="white"/>
<path d="M196.202 23.0712C195.476 23.8018 194.596 24.1728 193.552 24.1728C192.507 24.1728 191.628 23.8018 190.913 23.0712C190.187 22.3406 189.824 21.4301 189.824 20.3622C189.824 19.2943 190.187 18.3951 190.913 17.6532C191.639 16.9225 192.518 16.5516 193.552 16.5516C194.585 16.5516 195.476 16.9225 196.202 17.6532C196.928 18.3838 197.29 19.2943 197.29 20.3622C197.29 21.4301 196.928 22.3406 196.202 23.0712ZM193.552 22.9363C194.256 22.9363 194.849 22.689 195.333 22.1944C195.817 21.6998 196.059 21.0928 196.059 20.351C196.059 19.6091 195.817 19.0021 195.333 18.5187C194.849 18.0241 194.256 17.7768 193.552 17.7768C192.848 17.7768 192.265 18.0241 191.781 18.5187C191.298 19.0133 191.056 19.6203 191.056 20.351C191.056 21.0816 191.298 21.6998 191.781 22.1944C192.265 22.689 192.848 22.9363 193.552 22.9363Z" fill="white"/>
<path d="M199.972 17.9566C200.379 17.0574 201.115 16.6078 202.182 16.6078V17.9229C201.577 17.8892 201.06 18.0578 200.62 18.4175C200.192 18.7772 199.972 19.3504 199.972 20.1372V23.9701H198.74V16.7315H199.972V17.9454V17.9566Z" fill="white"/>
<path d="M260.499 12.9868V14.7196C259.562 14.7196 258.804 15.4938 258.804 16.4523V21.8104H257.109V16.4523C257.109 14.5475 258.624 12.9868 260.499 12.9868Z" fill="white"/>
<path d="M220.703 12.9868C219.694 12.9868 218.78 13.4415 218.167 14.1543C217.542 13.4415 216.64 12.9868 215.63 12.9868C213.767 12.9868 212.24 14.5352 212.24 16.4524V21.8104H213.935V16.4524C213.935 15.4938 214.693 14.7196 215.63 14.7196C216.568 14.7196 217.325 15.4938 217.325 16.4524V21.8104H219.02V16.4524C219.02 15.4938 219.778 14.7196 220.715 14.7196C221.653 14.7196 222.41 15.4938 222.41 16.4524V21.8104H224.106V16.4524C224.106 14.5475 222.591 12.9868 220.715 12.9868" fill="white"/>
<path d="M238.312 21.8105V20.0777C237.374 20.0777 236.617 19.3035 236.617 18.3449V8.57507H234.922V18.3449C234.922 20.2498 236.437 21.8105 238.312 21.8105Z" fill="white"/>
<path d="M242.818 12.9885C242.205 12.9885 241.628 13.1605 241.123 13.4554V8.60123H239.428V21.8121H241.123V16.454C241.123 15.4954 241.88 14.7212 242.818 14.7212C243.756 14.7212 244.513 15.4954 244.513 16.454V21.8121H246.208V16.454C246.208 14.5492 244.693 12.9885 242.818 12.9885Z" fill="white"/>
<path d="M233.72 16.5505C233.323 14.5474 231.592 13.0358 229.512 13.0358C227.433 13.0358 225.702 14.5474 225.305 16.5505C225.245 16.8331 225.221 17.1281 225.221 17.423C225.221 17.718 225.245 18.0129 225.305 18.2956C225.702 20.2987 227.433 21.8103 229.512 21.8103C230.931 21.8103 232.181 21.1098 232.963 20.0283L231.604 18.996C231.135 19.6474 230.366 20.0775 229.512 20.0775C228.37 20.0775 227.409 19.3278 227.048 18.2833H233.72C233.78 18.0006 233.804 17.7057 233.804 17.4107C233.804 17.1158 233.78 16.8209 233.72 16.5382M229.5 14.7563C230.642 14.7563 231.604 15.5059 231.965 16.5505H227.048C227.397 15.5059 228.37 14.7563 229.512 14.7563" fill="white"/>
<path d="M251.677 12.9868C249.297 12.9868 247.361 14.9653 247.361 17.3986C247.361 19.8318 249.297 21.8104 251.677 21.8104C254.057 21.8104 255.993 19.8318 255.993 17.3986C255.993 14.9653 254.057 12.9868 251.677 12.9868ZM251.677 20.0776C250.234 20.0776 249.056 18.8733 249.056 17.3986C249.056 15.9239 250.234 14.7196 251.677 14.7196C253.12 14.7196 254.298 15.9239 254.298 17.3986C254.298 18.8733 253.12 20.0776 251.677 20.0776Z" fill="white"/>
<path d="M258.744 23.6152H257.049V32.3897H258.744V23.6152Z" fill="white"/>
<path d="M238.24 27.1529C237.844 25.1498 236.124 23.6505 234.057 23.6505C231.989 23.6505 230.258 25.1498 229.873 27.1529C229.813 27.4355 229.789 27.7182 229.789 28.0131C229.789 28.3081 229.813 28.603 229.873 28.8734C230.27 30.8765 231.989 32.3758 234.057 32.3758C235.463 32.3758 236.713 31.6753 237.495 30.6061L236.136 29.5861C235.668 30.2375 234.91 30.6553 234.057 30.6553C232.927 30.6553 231.965 29.9057 231.604 28.8734H238.24C238.3 28.5907 238.324 28.3081 238.324 28.0131C238.324 27.7182 238.3 27.4232 238.24 27.1529ZM234.057 25.371C235.187 25.371 236.148 26.1206 236.509 27.1529H231.616C231.965 26.1206 232.927 25.371 234.069 25.371" fill="white"/>
<path d="M242.818 23.5623C240.954 23.5623 239.428 25.1107 239.428 27.0278V32.3859H241.123V27.0278C241.123 26.0693 241.88 25.2951 242.818 25.2951C243.756 25.2951 244.513 26.0693 244.513 27.0278V32.3859H246.208V27.0278C246.208 25.1107 244.693 23.5623 242.818 23.5623Z" fill="white"/>
<path d="M264.177 23.5623C261.797 23.5623 259.861 25.5408 259.861 27.9741C259.861 30.4073 261.797 32.3859 264.177 32.3859C266.557 32.3859 268.493 30.4073 268.493 27.9741C268.493 25.5408 266.557 23.5623 264.177 23.5623ZM264.177 30.6531C262.734 30.6531 261.556 29.4488 261.556 27.9741C261.556 26.4994 262.734 25.2951 264.177 25.2951C265.62 25.2951 266.798 26.4994 266.798 27.9741C266.798 29.4488 265.62 30.6531 264.177 30.6531Z" fill="white"/>
<path d="M254.117 23.6766L251.677 29.9564L249.225 23.6766H247.361L250.92 32.3896H252.434L255.993 23.6766H254.117Z" fill="white"/>
<path d="M260.499 12.9868V14.7196C259.562 14.7196 258.804 15.4938 258.804 16.4523V21.8104H257.109V16.4523C257.109 14.5475 258.624 12.9868 260.499 12.9868Z" fill="white"/>
<path d="M273.001 23.4403C272.965 22.9242 272.784 22.4327 272.46 21.9781C271.558 20.7617 270.08 20.6511 268.722 20.6142C269.371 19.6435 270.224 18.2428 270.26 16.4366C270.296 15.1587 269.912 14.0528 269.178 13.3156C268.914 13.0453 268.59 12.8118 268.241 12.6644C267.892 12.5046 267.532 12.4309 267.147 12.4186C266.402 12.3818 265.657 12.6889 265.104 13.2542C264.527 13.8439 264.347 14.532 264.19 15.1464V15.171C264.082 15.6256 263.89 16.0557 263.613 16.4366L263.217 16.9772L263.084 17.1369L263.06 17.1738C263.06 17.1738 263 17.2475 262.964 17.2967C262.916 17.3458 262.88 17.4073 262.82 17.4687C262.508 17.8373 262.123 18.2674 261.666 18.6728H261.654C261.221 19.0906 260.741 19.5084 260.332 19.8524V21.8061C260.332 21.8061 262.015 20.5282 262.712 19.877C263.229 19.4101 263.661 18.9186 264.022 18.5131L264.058 18.464C264.058 18.464 264.118 18.3902 264.154 18.3411C264.202 18.2919 264.25 18.2305 264.298 18.1568L264.431 17.997L264.972 17.2475C265.284 16.8175 265.512 16.3505 265.645 15.8345C265.669 15.7362 265.693 15.6502 265.717 15.5396C265.837 15.0727 265.945 14.6672 266.21 14.3846C266.27 14.3231 266.354 14.274 266.45 14.2249C266.63 14.1388 267.063 14.0283 267.436 14.102C267.76 14.1634 268.037 14.4092 268.061 14.446C268.469 14.8638 268.698 15.5765 268.674 16.3997C268.65 17.8742 267.844 19.066 267.255 19.9384L267.183 20.0367C266.931 20.3808 266.738 20.6757 266.594 21.0197L266.125 22.0641L267.243 22.1501C267.448 22.1624 267.64 22.1747 267.82 22.1747C268.001 22.1747 268.169 22.187 268.337 22.1993H268.385C269.611 22.2239 270.681 22.2484 271.186 22.9119C271.33 23.1208 271.414 23.3174 271.426 23.5263C271.45 23.8458 271.402 24.1653 271.306 24.4601C271.102 25.0376 271.042 25.6889 271.15 26.3401C271.198 26.6227 271.198 26.9176 271.15 27.1756C271.09 27.5811 270.909 27.9866 270.621 28.3798C270.525 28.5027 270.392 28.7115 270.296 28.9696V29.0187C270.2 29.2645 270.152 29.5471 270.152 29.8174C270.152 30.0754 270.032 30.444 269.924 30.7267C269.816 30.997 269.683 31.255 269.503 31.4762C269.359 31.6605 269.178 31.8817 269.034 31.98L268.998 32.0045C268.854 32.1274 268.662 32.2994 268.505 32.5206L268.481 32.5452L268.433 32.6189C267.868 33.5036 267.52 34.0565 266.991 34.4988C266.546 34.8675 266.029 35.1255 265.476 35.2729C265.308 35.3098 265.14 35.3467 264.984 35.3712C264.575 35.4327 264.19 35.4818 263.818 35.4818C262.459 35.4818 261.113 35.3098 259.827 34.9903H259.815C259.094 34.8183 258.144 34.6094 257.147 34.5111H256.474H229.886C229.718 34.5111 229.718 34.7569 229.886 34.7692L257.039 36.1208C257.94 36.2068 258.805 36.4034 259.455 36.5631C260.861 36.9194 262.327 37.1037 263.818 37.1037C264.298 37.1037 264.755 37.0423 265.188 36.9809C265.404 36.944 265.813 36.8457 266.137 36.7597C266.534 36.6491 266.907 36.4894 267.243 36.2805C268.409 35.5678 268.926 34.7692 269.695 33.5773L269.779 33.4544C269.779 33.4544 269.852 33.3561 269.948 33.2824C270.417 32.9384 270.789 32.496 271.078 31.9554C271.486 31.3164 271.691 30.5792 271.691 29.8174C271.691 29.7314 271.703 29.6208 271.727 29.5471C271.751 29.4856 271.799 29.4119 271.847 29.3505C272.292 28.7361 272.58 28.0972 272.676 27.4337C272.748 27.0036 272.748 26.549 272.676 26.0944C272.616 25.7012 272.64 25.3325 272.748 25.0254C272.929 24.5093 273.001 23.9687 272.965 23.4157" fill="white"/>
</svg>
